<mxfile host="Electron" modified="2024-06-25T01:05:53.046Z" agent="Mozilla/5.0 (Windows NT 10.0; Win64; x64) AppleWebKit/537.36 (KHTML, like Gecko) draw.io/24.6.1 Chrome/124.0.6367.207 Electron/30.0.6 Safari/537.36" etag="bggqdigXg2WChg776cuV" version="24.6.1" type="device">
  <diagram name="第 1 页" id="-19R8RWWiSfhEVDIW26V">
    <mxGraphModel dx="1036" dy="606" grid="1" gridSize="10" guides="1" tooltips="1" connect="1" arrows="1" fold="1" page="1" pageScale="1" pageWidth="827" pageHeight="1169" math="0" shadow="0">
      <root>
        <mxCell id="0" />
        <mxCell id="1" parent="0" />
        <mxCell id="fcur3ffOLpoWmsTz0P9l-1" value="督脉" style="text;html=1;align=center;verticalAlign=middle;whiteSpace=wrap;rounded=0;fontSize=15;fontStyle=1" parent="1" vertex="1">
          <mxGeometry x="380" y="100" width="60" height="30" as="geometry" />
        </mxCell>
        <mxCell id="fcur3ffOLpoWmsTz0P9l-2" value="任脉" style="text;html=1;align=center;verticalAlign=middle;whiteSpace=wrap;rounded=0;fontSize=15;fontStyle=1" parent="1" vertex="1">
          <mxGeometry x="380" y="551" width="60" height="30" as="geometry" />
        </mxCell>
        <mxCell id="fcur3ffOLpoWmsTz0P9l-3" value="手阳明大肠经&lt;div&gt;手太阴肺经&lt;/div&gt;" style="text;html=1;align=center;verticalAlign=middle;whiteSpace=wrap;rounded=0;fontSize=15;fontStyle=1" parent="1" vertex="1">
          <mxGeometry x="140" y="160" width="160" height="30" as="geometry" />
        </mxCell>
        <mxCell id="fcur3ffOLpoWmsTz0P9l-4" value="足太阴脾经&lt;div&gt;足阳明胃经&lt;/div&gt;" style="text;html=1;align=center;verticalAlign=middle;whiteSpace=wrap;rounded=0;fontSize=15;fontStyle=1" parent="1" vertex="1">
          <mxGeometry x="530" y="470" width="160" height="30" as="geometry" />
        </mxCell>
        <mxCell id="fcur3ffOLpoWmsTz0P9l-5" value="手少阴心经&lt;div&gt;手太阳小肠经&lt;/div&gt;" style="text;html=1;align=center;verticalAlign=middle;whiteSpace=wrap;rounded=0;fontSize=15;fontStyle=1" parent="1" vertex="1">
          <mxGeometry x="80" y="320.5" width="160" height="30" as="geometry" />
        </mxCell>
        <mxCell id="fcur3ffOLpoWmsTz0P9l-6" value="手厥阴心包经&lt;div&gt;手少阳三焦经&lt;/div&gt;" style="text;html=1;align=center;verticalAlign=middle;whiteSpace=wrap;rounded=0;fontSize=15;fontStyle=1" parent="1" vertex="1">
          <mxGeometry x="120" y="480" width="160" height="30" as="geometry" />
        </mxCell>
        <mxCell id="fcur3ffOLpoWmsTz0P9l-7" value="手厥阴肝经&lt;div&gt;足少阳胆经&lt;/div&gt;" style="text;html=1;align=center;verticalAlign=middle;whiteSpace=wrap;rounded=0;fontSize=15;fontStyle=1" parent="1" vertex="1">
          <mxGeometry x="530" y="170" width="160" height="30" as="geometry" />
        </mxCell>
        <mxCell id="fcur3ffOLpoWmsTz0P9l-8" value="手少阳肾经&lt;div&gt;足太阳膀胱经&lt;/div&gt;" style="text;html=1;align=center;verticalAlign=middle;whiteSpace=wrap;rounded=0;fontSize=15;fontStyle=1" parent="1" vertex="1">
          <mxGeometry x="580" y="320.5" width="160" height="30" as="geometry" />
        </mxCell>
        <mxCell id="AX8IodvVf-fBr9j0eAXM-1" value="" style="ellipse;whiteSpace=wrap;html=1;aspect=fixed;" vertex="1" parent="1">
          <mxGeometry x="290" y="223.25" width="236.75" height="236.75" as="geometry" />
        </mxCell>
        <mxCell id="AX8IodvVf-fBr9j0eAXM-11" value="" style="group;rotation=-45;" vertex="1" connectable="0" parent="1">
          <mxGeometry x="250" y="200" width="70" height="37" as="geometry" />
        </mxCell>
        <mxCell id="AX8IodvVf-fBr9j0eAXM-5" value="" style="endArrow=none;html=1;rounded=0;exitX=0.338;exitY=0.704;exitDx=0;exitDy=0;exitPerimeter=0;strokeWidth=10;" edge="1" parent="AX8IodvVf-fBr9j0eAXM-11">
          <mxGeometry width="50" height="50" relative="1" as="geometry">
            <mxPoint x="10" y="43" as="sourcePoint" />
            <mxPoint x="59" y="-7" as="targetPoint" />
          </mxGeometry>
        </mxCell>
        <mxCell id="AX8IodvVf-fBr9j0eAXM-6" value="" style="endArrow=none;html=1;rounded=0;exitX=0.338;exitY=0.704;exitDx=0;exitDy=0;exitPerimeter=0;strokeWidth=10;" edge="1" parent="AX8IodvVf-fBr9j0eAXM-11">
          <mxGeometry width="50" height="50" relative="1" as="geometry">
            <mxPoint x="23" y="56" as="sourcePoint" />
            <mxPoint x="73" y="7" as="targetPoint" />
          </mxGeometry>
        </mxCell>
        <mxCell id="AX8IodvVf-fBr9j0eAXM-9" value="" style="group;rotation=-45;" vertex="1" connectable="0" parent="AX8IodvVf-fBr9j0eAXM-11">
          <mxGeometry x="-13" y="5" width="70" as="geometry" />
        </mxCell>
        <mxCell id="AX8IodvVf-fBr9j0eAXM-7" value="" style="endArrow=none;html=1;rounded=0;exitX=0.338;exitY=0.704;exitDx=0;exitDy=0;exitPerimeter=0;strokeWidth=10;" edge="1" parent="AX8IodvVf-fBr9j0eAXM-9">
          <mxGeometry width="50" height="50" relative="1" as="geometry">
            <mxPoint x="10" y="25" as="sourcePoint" />
            <mxPoint x="30" y="5" as="targetPoint" />
          </mxGeometry>
        </mxCell>
        <mxCell id="AX8IodvVf-fBr9j0eAXM-8" value="" style="endArrow=none;html=1;rounded=0;exitX=0.338;exitY=0.704;exitDx=0;exitDy=0;exitPerimeter=0;strokeWidth=10;" edge="1" parent="AX8IodvVf-fBr9j0eAXM-9">
          <mxGeometry width="50" height="50" relative="1" as="geometry">
            <mxPoint x="40" y="-5" as="sourcePoint" />
            <mxPoint x="60" y="-25" as="targetPoint" />
          </mxGeometry>
        </mxCell>
        <mxCell id="AX8IodvVf-fBr9j0eAXM-12" value="" style="group;rotation=-90;" vertex="1" connectable="0" parent="1">
          <mxGeometry x="203" y="318.5" width="70" height="37" as="geometry" />
        </mxCell>
        <mxCell id="AX8IodvVf-fBr9j0eAXM-13" value="" style="endArrow=none;html=1;rounded=0;exitX=0.338;exitY=0.704;exitDx=0;exitDy=0;exitPerimeter=0;strokeWidth=10;" edge="1" parent="AX8IodvVf-fBr9j0eAXM-12">
          <mxGeometry width="50" height="50" relative="1" as="geometry">
            <mxPoint x="23" y="53" as="sourcePoint" />
            <mxPoint x="23" y="-16" as="targetPoint" />
          </mxGeometry>
        </mxCell>
        <mxCell id="AX8IodvVf-fBr9j0eAXM-14" value="" style="endArrow=none;html=1;rounded=0;exitX=0.338;exitY=0.704;exitDx=0;exitDy=0;exitPerimeter=0;strokeWidth=10;" edge="1" parent="AX8IodvVf-fBr9j0eAXM-12">
          <mxGeometry width="50" height="50" relative="1" as="geometry">
            <mxPoint x="54" y="54" as="sourcePoint" />
            <mxPoint x="54" y="-16" as="targetPoint" />
          </mxGeometry>
        </mxCell>
        <mxCell id="AX8IodvVf-fBr9j0eAXM-15" value="" style="group;rotation=-90;" vertex="1" connectable="0" parent="AX8IodvVf-fBr9j0eAXM-12">
          <mxGeometry x="4" y="19" width="70" as="geometry" />
        </mxCell>
        <mxCell id="AX8IodvVf-fBr9j0eAXM-16" value="" style="endArrow=none;html=1;rounded=0;exitX=0.338;exitY=0.704;exitDx=0;exitDy=0;exitPerimeter=0;strokeWidth=10;" edge="1" parent="AX8IodvVf-fBr9j0eAXM-15">
          <mxGeometry width="50" height="50" relative="1" as="geometry">
            <mxPoint x="35" y="35" as="sourcePoint" />
            <mxPoint x="35" y="7" as="targetPoint" />
          </mxGeometry>
        </mxCell>
        <mxCell id="AX8IodvVf-fBr9j0eAXM-17" value="" style="endArrow=none;html=1;rounded=0;exitX=0.338;exitY=0.704;exitDx=0;exitDy=0;exitPerimeter=0;strokeWidth=10;" edge="1" parent="AX8IodvVf-fBr9j0eAXM-15">
          <mxGeometry width="50" height="50" relative="1" as="geometry">
            <mxPoint x="35" y="-7" as="sourcePoint" />
            <mxPoint x="35" y="-35" as="targetPoint" />
          </mxGeometry>
        </mxCell>
        <mxCell id="AX8IodvVf-fBr9j0eAXM-41" value="" style="group" vertex="1" connectable="0" parent="1">
          <mxGeometry x="373" y="492" width="70" height="32" as="geometry" />
        </mxCell>
        <mxCell id="AX8IodvVf-fBr9j0eAXM-32" value="" style="group" vertex="1" connectable="0" parent="AX8IodvVf-fBr9j0eAXM-41">
          <mxGeometry y="16" width="70" as="geometry" />
        </mxCell>
        <mxCell id="AX8IodvVf-fBr9j0eAXM-33" value="" style="endArrow=none;html=1;rounded=0;exitX=0.338;exitY=0.704;exitDx=0;exitDy=0;exitPerimeter=0;strokeWidth=10;" edge="1" parent="AX8IodvVf-fBr9j0eAXM-32">
          <mxGeometry width="50" height="50" relative="1" as="geometry">
            <mxPoint as="sourcePoint" />
            <mxPoint x="28" as="targetPoint" />
          </mxGeometry>
        </mxCell>
        <mxCell id="AX8IodvVf-fBr9j0eAXM-34" value="" style="endArrow=none;html=1;rounded=0;exitX=0.338;exitY=0.704;exitDx=0;exitDy=0;exitPerimeter=0;strokeWidth=10;" edge="1" parent="AX8IodvVf-fBr9j0eAXM-32">
          <mxGeometry width="50" height="50" relative="1" as="geometry">
            <mxPoint x="42" as="sourcePoint" />
            <mxPoint x="70" as="targetPoint" />
          </mxGeometry>
        </mxCell>
        <mxCell id="AX8IodvVf-fBr9j0eAXM-35" value="" style="group" vertex="1" connectable="0" parent="AX8IodvVf-fBr9j0eAXM-41">
          <mxGeometry width="70" as="geometry" />
        </mxCell>
        <mxCell id="AX8IodvVf-fBr9j0eAXM-36" value="" style="endArrow=none;html=1;rounded=0;exitX=0.338;exitY=0.704;exitDx=0;exitDy=0;exitPerimeter=0;strokeWidth=10;" edge="1" parent="AX8IodvVf-fBr9j0eAXM-35">
          <mxGeometry width="50" height="50" relative="1" as="geometry">
            <mxPoint as="sourcePoint" />
            <mxPoint x="28" as="targetPoint" />
          </mxGeometry>
        </mxCell>
        <mxCell id="AX8IodvVf-fBr9j0eAXM-37" value="" style="endArrow=none;html=1;rounded=0;exitX=0.338;exitY=0.704;exitDx=0;exitDy=0;exitPerimeter=0;strokeWidth=10;" edge="1" parent="AX8IodvVf-fBr9j0eAXM-35">
          <mxGeometry width="50" height="50" relative="1" as="geometry">
            <mxPoint x="42" as="sourcePoint" />
            <mxPoint x="70" as="targetPoint" />
          </mxGeometry>
        </mxCell>
        <mxCell id="AX8IodvVf-fBr9j0eAXM-38" value="" style="group" vertex="1" connectable="0" parent="AX8IodvVf-fBr9j0eAXM-41">
          <mxGeometry y="32" width="70" as="geometry" />
        </mxCell>
        <mxCell id="AX8IodvVf-fBr9j0eAXM-39" value="" style="endArrow=none;html=1;rounded=0;exitX=0.338;exitY=0.704;exitDx=0;exitDy=0;exitPerimeter=0;strokeWidth=10;" edge="1" parent="AX8IodvVf-fBr9j0eAXM-38">
          <mxGeometry width="50" height="50" relative="1" as="geometry">
            <mxPoint as="sourcePoint" />
            <mxPoint x="28" as="targetPoint" />
          </mxGeometry>
        </mxCell>
        <mxCell id="AX8IodvVf-fBr9j0eAXM-40" value="" style="endArrow=none;html=1;rounded=0;exitX=0.338;exitY=0.704;exitDx=0;exitDy=0;exitPerimeter=0;strokeWidth=10;" edge="1" parent="AX8IodvVf-fBr9j0eAXM-38">
          <mxGeometry width="50" height="50" relative="1" as="geometry">
            <mxPoint x="42" as="sourcePoint" />
            <mxPoint x="70" as="targetPoint" />
          </mxGeometry>
        </mxCell>
        <mxCell id="AX8IodvVf-fBr9j0eAXM-42" value="" style="group;rotation=-45;" vertex="1" connectable="0" parent="1">
          <mxGeometry x="491" y="446" width="70" height="30" as="geometry" />
        </mxCell>
        <mxCell id="AX8IodvVf-fBr9j0eAXM-20" value="" style="endArrow=none;html=1;rounded=0;exitX=0.338;exitY=0.704;exitDx=0;exitDy=0;exitPerimeter=0;strokeWidth=10;" edge="1" parent="AX8IodvVf-fBr9j0eAXM-42">
          <mxGeometry width="50" height="50" relative="1" as="geometry">
            <mxPoint x="21" y="50" as="sourcePoint" />
            <mxPoint x="70" y="1" as="targetPoint" />
          </mxGeometry>
        </mxCell>
        <mxCell id="AX8IodvVf-fBr9j0eAXM-27" value="" style="group;rotation=-45;" vertex="1" connectable="0" parent="AX8IodvVf-fBr9j0eAXM-42">
          <mxGeometry x="1" y="16" width="70" as="geometry" />
        </mxCell>
        <mxCell id="AX8IodvVf-fBr9j0eAXM-22" value="" style="endArrow=none;html=1;rounded=0;exitX=0.338;exitY=0.704;exitDx=0;exitDy=0;exitPerimeter=0;strokeWidth=10;" edge="1" parent="AX8IodvVf-fBr9j0eAXM-27">
          <mxGeometry width="50" height="50" relative="1" as="geometry">
            <mxPoint x="10" y="25" as="sourcePoint" />
            <mxPoint x="30" y="5" as="targetPoint" />
          </mxGeometry>
        </mxCell>
        <mxCell id="AX8IodvVf-fBr9j0eAXM-23" value="" style="endArrow=none;html=1;rounded=0;exitX=0.338;exitY=0.704;exitDx=0;exitDy=0;exitPerimeter=0;strokeWidth=10;" edge="1" parent="AX8IodvVf-fBr9j0eAXM-27">
          <mxGeometry width="50" height="50" relative="1" as="geometry">
            <mxPoint x="40" y="-5" as="sourcePoint" />
            <mxPoint x="60" y="-25" as="targetPoint" />
          </mxGeometry>
        </mxCell>
        <mxCell id="AX8IodvVf-fBr9j0eAXM-28" value="" style="group;rotation=-45;" vertex="1" connectable="0" parent="AX8IodvVf-fBr9j0eAXM-42">
          <mxGeometry x="-11" y="4" width="70" as="geometry" />
        </mxCell>
        <mxCell id="AX8IodvVf-fBr9j0eAXM-29" value="" style="endArrow=none;html=1;rounded=0;exitX=0.338;exitY=0.704;exitDx=0;exitDy=0;exitPerimeter=0;strokeWidth=10;" edge="1" parent="AX8IodvVf-fBr9j0eAXM-28">
          <mxGeometry width="50" height="50" relative="1" as="geometry">
            <mxPoint x="10" y="25" as="sourcePoint" />
            <mxPoint x="30" y="5" as="targetPoint" />
          </mxGeometry>
        </mxCell>
        <mxCell id="AX8IodvVf-fBr9j0eAXM-30" value="" style="endArrow=none;html=1;rounded=0;exitX=0.338;exitY=0.704;exitDx=0;exitDy=0;exitPerimeter=0;strokeWidth=10;" edge="1" parent="AX8IodvVf-fBr9j0eAXM-28">
          <mxGeometry width="50" height="50" relative="1" as="geometry">
            <mxPoint x="40" y="-5" as="sourcePoint" />
            <mxPoint x="60" y="-25" as="targetPoint" />
          </mxGeometry>
        </mxCell>
        <mxCell id="AX8IodvVf-fBr9j0eAXM-43" value="" style="group" vertex="1" connectable="0" parent="1">
          <mxGeometry x="370" y="150" width="70" height="37" as="geometry" />
        </mxCell>
        <mxCell id="AX8IodvVf-fBr9j0eAXM-44" value="" style="endArrow=none;html=1;rounded=0;exitX=0.338;exitY=0.704;exitDx=0;exitDy=0;exitPerimeter=0;strokeWidth=10;" edge="1" parent="AX8IodvVf-fBr9j0eAXM-43">
          <mxGeometry width="50" height="50" relative="1" as="geometry">
            <mxPoint x="0.021500000000060027" y="18.002000000000066" as="sourcePoint" />
            <mxPoint x="70" y="18.08000000000004" as="targetPoint" />
          </mxGeometry>
        </mxCell>
        <mxCell id="AX8IodvVf-fBr9j0eAXM-45" value="" style="endArrow=none;html=1;rounded=0;exitX=0.338;exitY=0.704;exitDx=0;exitDy=0;exitPerimeter=0;strokeWidth=10;" edge="1" parent="AX8IodvVf-fBr9j0eAXM-43">
          <mxGeometry width="50" height="50" relative="1" as="geometry">
            <mxPoint y="37" as="sourcePoint" />
            <mxPoint x="70" y="37" as="targetPoint" />
          </mxGeometry>
        </mxCell>
        <mxCell id="AX8IodvVf-fBr9j0eAXM-46" value="" style="endArrow=none;html=1;rounded=0;exitX=0.338;exitY=0.704;exitDx=0;exitDy=0;exitPerimeter=0;strokeWidth=10;" edge="1" parent="AX8IodvVf-fBr9j0eAXM-43">
          <mxGeometry width="50" height="50" relative="1" as="geometry">
            <mxPoint as="sourcePoint" />
            <mxPoint x="70" as="targetPoint" />
          </mxGeometry>
        </mxCell>
        <mxCell id="AX8IodvVf-fBr9j0eAXM-47" value="" style="group;rotation=-135;" vertex="1" connectable="0" parent="1">
          <mxGeometry x="253" y="443" width="70" height="30" as="geometry" />
        </mxCell>
        <mxCell id="AX8IodvVf-fBr9j0eAXM-48" value="" style="endArrow=none;html=1;rounded=0;exitX=0.338;exitY=0.704;exitDx=0;exitDy=0;exitPerimeter=0;strokeWidth=10;" edge="1" parent="AX8IodvVf-fBr9j0eAXM-47">
          <mxGeometry width="50" height="50" relative="1" as="geometry">
            <mxPoint x="70" y="29" as="sourcePoint" />
            <mxPoint x="21" y="-20" as="targetPoint" />
          </mxGeometry>
        </mxCell>
        <mxCell id="AX8IodvVf-fBr9j0eAXM-49" value="" style="group;rotation=-135;" vertex="1" connectable="0" parent="AX8IodvVf-fBr9j0eAXM-47">
          <mxGeometry x="1" y="14" width="70" as="geometry" />
        </mxCell>
        <mxCell id="AX8IodvVf-fBr9j0eAXM-50" value="" style="endArrow=none;html=1;rounded=0;exitX=0.338;exitY=0.704;exitDx=0;exitDy=0;exitPerimeter=0;strokeWidth=10;" edge="1" parent="AX8IodvVf-fBr9j0eAXM-49">
          <mxGeometry width="50" height="50" relative="1" as="geometry">
            <mxPoint x="60" y="25" as="sourcePoint" />
            <mxPoint x="40" y="5" as="targetPoint" />
          </mxGeometry>
        </mxCell>
        <mxCell id="AX8IodvVf-fBr9j0eAXM-51" value="" style="endArrow=none;html=1;rounded=0;exitX=0.338;exitY=0.704;exitDx=0;exitDy=0;exitPerimeter=0;strokeWidth=10;" edge="1" parent="AX8IodvVf-fBr9j0eAXM-49">
          <mxGeometry width="50" height="50" relative="1" as="geometry">
            <mxPoint x="30" y="-5" as="sourcePoint" />
            <mxPoint x="10" y="-25" as="targetPoint" />
          </mxGeometry>
        </mxCell>
        <mxCell id="AX8IodvVf-fBr9j0eAXM-52" value="" style="group;rotation=-135;" vertex="1" connectable="0" parent="AX8IodvVf-fBr9j0eAXM-47">
          <mxGeometry x="-11" y="26" width="70" as="geometry" />
        </mxCell>
        <mxCell id="AX8IodvVf-fBr9j0eAXM-53" value="" style="endArrow=none;html=1;rounded=0;exitX=0.338;exitY=0.704;exitDx=0;exitDy=0;exitPerimeter=0;strokeWidth=10;" edge="1" parent="AX8IodvVf-fBr9j0eAXM-52">
          <mxGeometry width="50" height="50" relative="1" as="geometry">
            <mxPoint x="60" y="25" as="sourcePoint" />
            <mxPoint x="40" y="5" as="targetPoint" />
          </mxGeometry>
        </mxCell>
        <mxCell id="AX8IodvVf-fBr9j0eAXM-54" value="" style="endArrow=none;html=1;rounded=0;exitX=0.338;exitY=0.704;exitDx=0;exitDy=0;exitPerimeter=0;strokeWidth=10;" edge="1" parent="AX8IodvVf-fBr9j0eAXM-52">
          <mxGeometry width="50" height="50" relative="1" as="geometry">
            <mxPoint x="30" y="-5" as="sourcePoint" />
            <mxPoint x="10" y="-25" as="targetPoint" />
          </mxGeometry>
        </mxCell>
        <mxCell id="AX8IodvVf-fBr9j0eAXM-66" value="" style="group" vertex="1" connectable="0" parent="1">
          <mxGeometry x="561" y="305" width="31" height="70" as="geometry" />
        </mxCell>
        <mxCell id="AX8IodvVf-fBr9j0eAXM-58" value="" style="endArrow=none;html=1;rounded=0;exitX=0.338;exitY=0.704;exitDx=0;exitDy=0;exitPerimeter=0;strokeWidth=10;" edge="1" parent="AX8IodvVf-fBr9j0eAXM-66">
          <mxGeometry width="50" height="50" relative="1" as="geometry">
            <mxPoint x="15" y="69" as="sourcePoint" />
            <mxPoint x="15" as="targetPoint" />
          </mxGeometry>
        </mxCell>
        <mxCell id="AX8IodvVf-fBr9j0eAXM-60" value="" style="group;rotation=-90;" vertex="1" connectable="0" parent="AX8IodvVf-fBr9j0eAXM-66">
          <mxGeometry x="-4" y="35" width="70" as="geometry" />
        </mxCell>
        <mxCell id="AX8IodvVf-fBr9j0eAXM-61" value="" style="endArrow=none;html=1;rounded=0;exitX=0.338;exitY=0.704;exitDx=0;exitDy=0;exitPerimeter=0;strokeWidth=10;" edge="1" parent="AX8IodvVf-fBr9j0eAXM-60">
          <mxGeometry width="50" height="50" relative="1" as="geometry">
            <mxPoint x="35" y="35" as="sourcePoint" />
            <mxPoint x="35" y="7" as="targetPoint" />
          </mxGeometry>
        </mxCell>
        <mxCell id="AX8IodvVf-fBr9j0eAXM-62" value="" style="endArrow=none;html=1;rounded=0;exitX=0.338;exitY=0.704;exitDx=0;exitDy=0;exitPerimeter=0;strokeWidth=10;" edge="1" parent="AX8IodvVf-fBr9j0eAXM-60">
          <mxGeometry width="50" height="50" relative="1" as="geometry">
            <mxPoint x="35" y="-7" as="sourcePoint" />
            <mxPoint x="35" y="-35" as="targetPoint" />
          </mxGeometry>
        </mxCell>
        <mxCell id="AX8IodvVf-fBr9j0eAXM-63" value="" style="group;rotation=-90;" vertex="1" connectable="0" parent="AX8IodvVf-fBr9j0eAXM-66">
          <mxGeometry x="-35" y="35" width="70" as="geometry" />
        </mxCell>
        <mxCell id="AX8IodvVf-fBr9j0eAXM-64" value="" style="endArrow=none;html=1;rounded=0;exitX=0.338;exitY=0.704;exitDx=0;exitDy=0;exitPerimeter=0;strokeWidth=10;" edge="1" parent="AX8IodvVf-fBr9j0eAXM-63">
          <mxGeometry width="50" height="50" relative="1" as="geometry">
            <mxPoint x="35" y="35" as="sourcePoint" />
            <mxPoint x="35" y="7" as="targetPoint" />
          </mxGeometry>
        </mxCell>
        <mxCell id="AX8IodvVf-fBr9j0eAXM-65" value="" style="endArrow=none;html=1;rounded=0;exitX=0.338;exitY=0.704;exitDx=0;exitDy=0;exitPerimeter=0;strokeWidth=10;" edge="1" parent="AX8IodvVf-fBr9j0eAXM-63">
          <mxGeometry width="50" height="50" relative="1" as="geometry">
            <mxPoint x="35" y="-7" as="sourcePoint" />
            <mxPoint x="35" y="-35" as="targetPoint" />
          </mxGeometry>
        </mxCell>
        <mxCell id="AX8IodvVf-fBr9j0eAXM-67" value="" style="group;rotation=-135;" vertex="1" connectable="0" parent="1">
          <mxGeometry x="495" y="198" width="70" height="37" as="geometry" />
        </mxCell>
        <mxCell id="AX8IodvVf-fBr9j0eAXM-68" value="" style="endArrow=none;html=1;rounded=0;exitX=0.338;exitY=0.704;exitDx=0;exitDy=0;exitPerimeter=0;strokeWidth=10;" edge="1" parent="AX8IodvVf-fBr9j0eAXM-67">
          <mxGeometry width="50" height="50" relative="1" as="geometry">
            <mxPoint x="60" y="44" as="sourcePoint" />
            <mxPoint x="10" y="-5" as="targetPoint" />
          </mxGeometry>
        </mxCell>
        <mxCell id="AX8IodvVf-fBr9j0eAXM-69" value="" style="endArrow=none;html=1;rounded=0;exitX=0.338;exitY=0.704;exitDx=0;exitDy=0;exitPerimeter=0;strokeWidth=10;" edge="1" parent="AX8IodvVf-fBr9j0eAXM-67">
          <mxGeometry width="50" height="50" relative="1" as="geometry">
            <mxPoint x="73" y="31" as="sourcePoint" />
            <mxPoint x="24" y="-19" as="targetPoint" />
          </mxGeometry>
        </mxCell>
        <mxCell id="AX8IodvVf-fBr9j0eAXM-70" value="" style="group;rotation=-135;" vertex="1" connectable="0" parent="AX8IodvVf-fBr9j0eAXM-67">
          <mxGeometry x="-13" y="32" width="70" as="geometry" />
        </mxCell>
        <mxCell id="AX8IodvVf-fBr9j0eAXM-71" value="" style="endArrow=none;html=1;rounded=0;exitX=0.338;exitY=0.704;exitDx=0;exitDy=0;exitPerimeter=0;strokeWidth=10;" edge="1" parent="AX8IodvVf-fBr9j0eAXM-70">
          <mxGeometry width="50" height="50" relative="1" as="geometry">
            <mxPoint x="60" y="25" as="sourcePoint" />
            <mxPoint x="40" y="5" as="targetPoint" />
          </mxGeometry>
        </mxCell>
        <mxCell id="AX8IodvVf-fBr9j0eAXM-72" value="" style="endArrow=none;html=1;rounded=0;exitX=0.338;exitY=0.704;exitDx=0;exitDy=0;exitPerimeter=0;strokeWidth=10;" edge="1" parent="AX8IodvVf-fBr9j0eAXM-70">
          <mxGeometry width="50" height="50" relative="1" as="geometry">
            <mxPoint x="30" y="-5" as="sourcePoint" />
            <mxPoint x="10" y="-25" as="targetPoint" />
          </mxGeometry>
        </mxCell>
      </root>
    </mxGraphModel>
  </diagram>
</mxfile>
